<svg id="svg" version="1.1" xmlns="http://www.w3.org/2000/svg" xmlns:xlink="http://www.w3.org/1999/xlink" width="400" height="400" viewBox="0, 0, 400,400"><g id="svgg"><path id="path0" d="M198.921 75.892 C 191.251 81.008,182.913 89.520,177.458 97.800 C 157.695 127.802,165.544 159.175,194.862 167.368 C 196.105 167.716,197.320 168.000,197.562 168.000 C 198.733 168.000,198.088 156.278,196.782 153.830 C 192.536 145.873,189.141 141.804,178.600 132.034 C 174.699 128.419,175.148 128.092,180.284 130.804 C 187.529 134.629,191.478 137.967,195.600 143.753 L 197.800 146.841 197.907 137.588 L 198.015 128.336 195.846 124.021 C 194.653 121.647,193.188 118.917,192.591 117.953 C 190.860 115.157,186.686 109.052,186.090 108.444 C 183.479 105.780,184.531 104.716,187.248 107.272 C 187.557 107.563,188.977 108.691,190.404 109.781 C 191.832 110.870,194.080 112.800,195.400 114.069 L 197.800 116.376 198.073 112.488 C 198.457 107.013,200.125 92.760,201.044 87.100 C 201.413 84.828,201.871 85.295,202.223 88.300 C 202.717 92.515,202.766 93.885,203.093 112.600 L 203.400 130.200 204.728 127.602 C 208.138 120.932,213.548 114.507,218.590 111.138 C 221.424 109.244,221.887 109.697,219.681 112.203 C 215.490 116.964,208.976 127.871,206.280 134.640 C 203.825 140.804,203.666 141.952,203.364 155.700 L 203.093 168.000 204.896 168.000 C 212.768 168.000,224.516 161.687,230.215 154.395 C 237.069 145.623,239.472 130.730,235.989 118.600 C 230.979 101.149,220.144 86.129,205.308 76.071 C 201.889 73.752,202.119 73.759,198.921 75.892 M258.800 152.993 C 254.159 153.704,248.505 155.294,243.800 157.211 C 236.361 160.242,233.501 161.510,230.000 163.329 C 227.910 164.415,225.426 165.820,224.480 166.452 C 223.534 167.083,222.675 167.600,222.572 167.600 C 222.197 167.600,212.938 174.567,210.401 176.756 C 208.029 178.805,205.841 181.018,202.451 184.800 L 201.196 186.200 200.313 185.000 C 188.781 169.320,163.530 156.845,143.248 156.807 L 139.497 156.800 139.768 159.700 C 140.285 165.228,141.520 170.013,144.458 177.863 L 145.679 181.127 148.539 181.386 C 155.240 181.993,169.174 184.259,172.000 185.200 C 172.550 185.384,174.890 186.102,177.200 186.796 C 183.900 188.808,184.728 189.108,189.600 191.278 C 192.885 192.741,196.807 194.857,200.737 197.289 C 202.132 198.153,203.321 198.801,203.379 198.730 C 203.437 198.658,204.539 197.160,205.829 195.400 C 215.253 182.537,229.424 173.048,245.583 168.778 C 252.364 166.987,256.990 167.527,250.895 169.398 C 249.633 169.786,248.429 170.260,248.220 170.451 C 248.011 170.643,247.609 170.800,247.327 170.800 C 246.583 170.800,239.424 174.283,236.493 176.071 C 235.114 176.912,233.895 177.600,233.785 177.600 C 230.546 177.600,209.200 199.360,209.200 202.662 C 209.200 202.871,210.775 204.317,212.700 205.876 C 216.243 208.744,219.892 212.355,220.685 213.777 C 221.234 214.763,222.807 214.331,228.400 211.661 C 245.578 203.461,258.026 187.620,262.722 167.986 C 264.127 162.108,264.405 160.300,264.504 156.400 L 264.600 152.600 263.400 152.536 C 262.740 152.501,260.670 152.707,258.800 152.993 M148.398 185.791 C 148.393 186.831,154.070 194.425,157.676 198.202 C 163.868 204.687,171.228 209.774,178.800 212.803 C 180.010 213.287,181.360 213.831,181.800 214.013 C 182.599 214.343,187.357 215.720,190.000 216.387 C 197.304 218.228,210.897 218.436,212.600 216.733 C 212.855 216.479,206.065 209.571,202.800 206.764 C 193.322 198.614,177.866 191.071,164.000 187.829 C 157.309 186.264,148.401 185.101,148.398 185.791 M135.000 241.969 C 131.534 243.205,131.046 243.471,129.089 245.199 C 118.617 254.449,121.913 272.162,134.821 276.006 C 142.376 278.256,150.283 276.110,154.250 270.732 C 155.553 268.966,155.533 268.928,152.635 267.587 C 149.470 266.122,149.827 266.090,148.041 268.005 C 143.001 273.409,133.866 271.525,130.664 264.420 C 125.523 253.014,138.546 241.481,147.375 249.620 C 149.372 251.460,149.395 251.464,152.459 250.346 C 155.131 249.372,155.226 249.107,153.670 246.960 C 150.122 242.064,141.328 239.713,135.000 241.969 M56.783 250.254 C 56.773 255.064,56.768 262.870,56.770 267.600 L 56.774 276.200 64.487 276.316 C 78.969 276.534,83.284 274.301,83.260 266.600 C 83.249 262.913,82.329 261.233,78.801 258.458 L 77.803 257.673 78.801 257.209 C 82.355 255.559,83.048 247.909,79.926 244.787 C 77.184 242.046,76.369 241.863,66.100 241.676 L 56.800 241.507 56.783 250.254 M98.670 247.500 C 97.395 250.745,96.189 253.760,95.991 254.200 C 95.793 254.640,94.268 258.420,92.603 262.600 C 90.937 266.780,89.405 270.560,89.198 271.000 C 88.706 272.047,87.200 275.977,87.200 276.215 C 87.200 276.669,93.524 276.371,93.886 275.900 C 94.097 275.625,94.684 274.230,95.191 272.800 C 96.868 268.072,96.212 268.400,103.977 268.400 C 110.925 268.400,112.000 268.531,112.000 269.376 C 112.000 269.646,112.619 271.292,113.376 273.033 L 114.752 276.200 117.976 276.316 C 121.915 276.458,121.865 276.643,119.433 271.000 C 119.148 270.340,116.415 263.459,113.358 255.709 L 107.800 241.619 104.394 241.609 L 100.988 241.600 98.670 247.500 M162.000 259.000 L 162.000 276.400 165.000 276.400 L 168.000 276.400 168.000 271.043 L 168.000 265.687 169.300 264.064 C 170.770 262.229,171.266 262.068,172.051 263.171 C 173.162 264.733,182.197 275.810,182.592 276.094 C 183.083 276.447,190.800 276.505,190.800 276.155 C 190.800 275.744,176.849 259.111,176.300 258.867 C 176.135 258.793,176.000 258.493,176.000 258.200 C 176.000 257.907,176.135 257.607,176.300 257.533 C 176.465 257.460,177.770 256.050,179.200 254.400 C 180.629 252.750,181.890 251.310,182.001 251.200 C 182.112 251.090,183.818 249.110,185.794 246.800 C 187.769 244.490,189.523 242.540,189.692 242.467 C 190.869 241.956,189.439 241.600,186.214 241.600 L 182.429 241.600 178.160 246.500 C 170.143 255.703,168.736 257.208,168.368 256.980 C 168.165 256.855,168.000 253.360,168.000 249.176 L 168.000 241.600 165.000 241.600 L 162.000 241.600 162.000 259.000 M196.896 258.900 L 197.000 276.200 208.500 276.306 L 220.000 276.412 220.000 273.614 L 220.000 270.816 211.700 270.708 L 203.400 270.600 203.286 266.500 L 203.172 262.400 210.586 262.400 L 218.000 262.400 218.000 259.500 L 218.001 256.600 211.573 256.737 C 202.536 256.929,203.200 257.304,203.200 252.001 L 203.200 247.617 211.300 247.508 L 219.400 247.400 219.518 244.500 L 219.635 241.600 208.213 241.600 L 196.792 241.600 196.896 258.900 M228.096 258.900 L 228.200 276.200 230.900 276.318 L 233.600 276.437 233.600 265.018 C 233.600 255.053,233.678 253.600,234.210 253.600 C 234.545 253.600,234.988 254.041,235.193 254.581 C 235.398 255.120,235.995 256.245,236.519 257.081 C 237.044 257.916,237.940 259.440,238.510 260.467 C 246.255 274.408,246.412 274.552,248.805 269.900 C 249.512 268.525,250.435 266.831,250.856 266.136 C 251.277 265.441,252.381 263.461,253.310 261.736 C 259.122 250.949,258.800 250.757,258.800 265.018 L 258.800 276.435 261.700 276.318 L 264.600 276.200 264.600 259.000 L 264.600 241.800 260.872 241.800 L 257.144 241.800 251.912 252.100 C 249.034 257.765,246.482 262.396,246.240 262.392 C 245.998 262.387,243.460 257.708,240.600 251.992 L 235.400 241.601 231.696 241.600 L 227.992 241.600 228.096 258.900 M274.400 258.952 L 274.400 276.400 282.345 276.400 C 293.283 276.400,295.153 276.007,298.287 273.050 C 302.133 269.422,301.382 261.735,296.908 258.935 C 296.299 258.554,295.723 258.186,295.629 258.116 C 295.535 258.047,296.056 257.408,296.788 256.695 C 300.030 253.539,300.091 247.430,296.911 244.482 C 294.403 242.158,292.964 241.861,283.300 241.675 L 274.400 241.505 274.400 258.952 M319.296 242.486 C 319.047 242.988,318.277 244.840,317.587 246.600 C 316.896 248.360,316.172 250.160,315.978 250.600 C 315.784 251.040,314.263 254.820,312.597 259.000 C 310.932 263.180,309.412 266.960,309.219 267.400 C 309.027 267.840,308.308 269.640,307.621 271.400 C 306.935 273.160,306.210 274.896,306.010 275.257 C 305.460 276.252,305.870 276.400,309.167 276.399 L 312.200 276.397 312.942 274.499 C 314.071 271.613,314.804 269.863,315.163 269.200 C 315.433 268.700,316.711 268.600,322.800 268.600 C 328.889 268.600,330.167 268.700,330.437 269.200 C 330.796 269.863,331.529 271.613,332.658 274.499 L 333.400 276.397 336.700 276.399 C 338.515 276.399,340.000 276.239,340.000 276.042 C 340.000 275.709,337.199 268.392,336.385 266.600 C 336.185 266.160,335.652 264.810,335.200 263.600 C 334.748 262.390,334.218 261.040,334.024 260.600 C 333.829 260.160,333.104 258.360,332.413 256.600 C 331.723 254.840,331.002 253.040,330.812 252.600 C 330.621 252.160,329.575 249.550,328.487 246.800 L 326.509 241.800 323.130 241.686 C 319.953 241.578,319.723 241.626,319.296 242.486 M73.624 248.104 C 76.356 249.945,75.854 254.436,72.800 255.477 C 72.030 255.740,69.555 255.965,67.300 255.977 L 63.200 256.000 63.200 251.600 L 63.200 247.200 67.741 247.200 C 71.794 247.200,72.426 247.297,73.624 248.104 M290.396 247.798 C 293.063 249.177,293.636 252.252,291.640 254.485 L 290.480 255.783 285.540 255.792 L 280.600 255.800 280.484 252.030 C 280.420 249.957,280.460 248.022,280.572 247.730 C 280.875 246.940,288.844 246.995,290.396 247.798 M105.585 252.500 C 106.075 253.875,107.180 256.774,108.038 258.942 C 108.897 261.110,109.600 262.955,109.600 263.042 C 109.600 263.129,107.260 263.200,104.400 263.200 C 98.342 263.200,98.399 263.280,100.817 258.200 C 101.405 256.964,103.254 251.907,103.486 250.900 C 103.852 249.311,104.669 249.933,105.585 252.500 M323.754 251.360 C 324.109 252.109,324.400 252.921,324.400 253.166 C 324.400 253.411,324.581 253.923,324.802 254.305 C 325.317 255.197,328.000 262.352,328.000 262.834 C 328.000 263.036,325.675 263.200,322.800 263.200 C 319.940 263.200,317.600 263.134,317.600 263.054 C 317.600 262.974,318.338 260.949,319.239 258.554 C 320.141 256.159,321.234 253.255,321.668 252.100 C 322.594 249.636,322.887 249.532,323.754 251.360 M74.884 262.484 C 77.324 264.345,77.099 268.097,74.441 269.885 C 73.207 270.715,72.625 270.800,68.141 270.800 L 63.200 270.800 63.200 266.267 C 63.200 263.773,63.335 261.597,63.500 261.430 C 64.374 260.546,73.445 261.386,74.884 262.484 M290.374 261.455 C 293.561 262.092,295.115 266.110,293.210 268.785 C 291.975 270.520,290.680 270.839,285.385 270.713 L 280.600 270.600 280.483 266.800 C 280.301 260.903,280.063 261.200,284.958 261.200 C 287.236 261.200,289.673 261.315,290.374 261.455 M192.024 293.069 C 189.125 293.682,187.223 296.802,188.010 299.653 C 188.606 301.808,189.548 302.393,195.398 304.242 C 198.422 305.198,199.379 306.634,198.117 308.324 C 196.705 310.215,193.235 310.264,190.753 308.428 C 189.372 307.408,188.864 307.407,187.641 308.425 L 186.683 309.223 187.581 310.179 C 190.920 313.734,199.200 313.617,201.346 309.984 C 203.590 306.184,200.961 302.096,195.584 301.025 C 192.102 300.331,190.615 298.752,191.776 296.980 C 192.615 295.700,195.553 295.609,197.510 296.801 C 199.102 297.773,199.161 297.772,200.355 296.778 C 202.652 294.865,196.495 292.124,192.024 293.069 M242.200 293.133 C 234.946 294.748,232.015 304.555,237.202 309.859 C 242.648 315.430,252.800 312.844,252.800 305.885 C 252.800 304.444,252.909 302.981,253.043 302.633 C 253.255 302.079,252.730 302.000,248.843 302.000 L 244.400 302.000 244.400 303.200 C 244.400 304.476,244.276 304.427,248.018 304.604 C 249.691 304.683,250.007 305.062,249.532 306.422 C 247.885 311.148,240.656 310.783,238.604 305.870 C 235.921 299.450,242.443 293.423,248.021 297.169 L 249.762 298.339 250.881 297.542 C 252.234 296.579,252.255 296.365,251.100 295.344 C 248.816 293.324,245.283 292.446,242.200 293.133 M120.800 302.771 C 120.800 313.267,120.693 312.835,123.200 312.480 C 124.166 312.344,124.198 312.240,124.155 309.469 C 124.092 305.508,124.013 305.600,127.459 305.600 C 132.615 305.600,134.800 303.750,134.800 299.385 C 134.800 294.586,132.692 293.200,125.392 293.200 L 120.800 293.200 120.800 302.771 M147.784 294.079 C 147.455 295.146,143.689 304.861,141.972 309.072 C 140.504 312.671,140.498 312.614,142.300 312.529 C 144.444 312.427,144.400 312.438,144.400 312.003 C 144.400 311.784,144.712 310.884,145.094 310.003 L 145.789 308.400 149.917 308.400 L 154.045 308.400 154.952 310.455 C 155.828 312.439,155.916 312.511,157.530 312.555 C 159.399 312.605,159.430 312.554,158.627 310.714 C 158.313 309.991,157.493 307.960,156.806 306.200 C 156.120 304.440,155.400 302.640,155.206 302.200 C 155.013 301.760,154.157 299.600,153.304 297.400 L 151.754 293.400 149.910 293.279 C 148.284 293.173,148.034 293.267,147.784 294.079 M163.200 293.551 C 163.200 293.744,163.453 294.112,163.763 294.369 C 164.073 294.626,164.621 295.414,164.981 296.118 C 165.341 296.823,165.986 297.940,166.413 298.600 C 166.841 299.260,167.313 300.070,167.462 300.400 C 167.611 300.730,168.277 301.770,168.943 302.712 C 170.107 304.359,170.150 304.574,170.094 308.412 C 170.061 310.694,170.200 312.417,170.418 312.440 C 170.628 312.462,171.250 312.480,171.800 312.480 C 172.350 312.480,172.980 312.462,173.200 312.440 C 173.436 312.416,173.600 310.827,173.600 308.561 L 173.600 304.722 175.727 301.261 C 176.897 299.357,178.440 296.765,179.156 295.500 L 180.459 293.200 178.529 293.215 L 176.600 293.231 174.538 296.915 C 173.404 298.942,172.230 300.650,171.928 300.712 C 171.440 300.812,169.232 297.509,167.650 294.312 C 167.104 293.207,163.200 292.540,163.200 293.551 M216.558 294.279 C 216.410 294.895,216.166 295.580,216.014 295.800 C 215.862 296.020,215.414 297.100,215.018 298.200 C 214.622 299.300,214.076 300.740,213.804 301.400 C 213.531 302.060,212.993 303.410,212.606 304.400 C 212.220 305.390,211.751 306.560,211.563 307.000 C 210.820 308.744,209.600 312.046,209.600 312.315 C 209.600 312.593,212.753 312.617,212.956 312.340 C 213.012 312.263,213.377 311.339,213.767 310.287 L 214.476 308.374 218.687 308.487 L 222.898 308.600 223.557 310.288 C 224.406 312.462,224.701 312.680,226.448 312.417 L 227.896 312.200 226.212 307.800 C 225.285 305.380,224.378 303.040,224.194 302.600 C 224.011 302.160,223.120 299.910,222.214 297.600 L 220.566 293.400 218.696 293.279 C 216.937 293.164,216.810 293.224,216.558 294.279 M262.800 302.600 C 262.800 307.770,262.800 312.114,262.800 312.254 C 262.800 312.452,272.745 312.598,275.100 312.435 C 275.380 312.415,275.600 311.877,275.600 311.213 L 275.600 310.025 270.900 309.913 L 266.200 309.800 266.200 307.200 L 266.200 304.600 270.124 304.485 L 274.048 304.370 273.924 303.085 L 273.800 301.800 269.882 301.685 L 265.964 301.571 266.082 298.885 L 266.200 296.200 270.600 296.141 L 275.000 296.082 275.124 294.641 L 275.248 293.200 269.024 293.200 L 262.800 293.200 262.800 302.600 M129.942 296.570 C 133.987 298.662,131.784 302.956,126.786 302.721 L 124.200 302.600 124.101 299.800 C 124.046 298.260,124.086 296.775,124.188 296.500 C 124.448 295.803,128.556 295.853,129.942 296.570 M150.400 298.154 C 150.400 298.239,150.939 299.814,151.598 301.654 C 152.257 303.494,152.797 305.135,152.798 305.300 C 152.799 305.465,151.450 305.600,149.800 305.600 C 148.150 305.600,146.800 305.516,146.800 305.414 C 146.800 305.311,147.052 304.636,147.360 303.914 C 148.011 302.384,149.035 299.707,149.354 298.700 C 149.539 298.114,150.400 297.665,150.400 298.154 M220.158 301.100 C 220.760 302.805,221.352 304.515,221.473 304.900 C 221.670 305.525,221.364 305.600,218.620 305.600 C 215.413 305.600,215.077 305.270,216.376 303.400 C 216.528 303.180,217.001 301.875,217.427 300.500 C 218.429 297.259,218.834 297.348,220.158 301.100 " stroke="none" fill="#34632f" fill-rule="evenodd"></path><path id="path1" d="M0.000 200.000 L 0.000 400.000 200.000 400.000 L 400.000 400.000 400.000 200.000 L 400.000 0.000 200.000 0.000 L 0.000 0.000 0.000 200.000 M205.449 75.633 C 244.047 101.678,249.254 153.171,214.608 166.211 C 210.088 167.913,204.136 169.011,203.282 168.302 C 202.711 167.828,202.854 145.159,203.449 141.800 C 204.122 138.001,209.748 125.135,211.738 122.842 C 212.045 122.489,212.364 122.019,212.448 121.798 C 212.661 121.233,216.909 115.001,218.703 112.620 L 220.196 110.639 218.868 111.420 C 214.648 113.900,209.089 120.371,205.678 126.773 C 204.645 128.712,203.620 130.365,203.400 130.449 C 203.140 130.547,202.914 125.001,202.754 114.600 C 202.492 97.512,202.112 88.725,201.580 87.412 C 201.295 86.710,201.244 86.763,201.201 87.800 C 201.145 89.133,200.776 92.227,199.817 99.400 C 199.464 102.040,199.003 106.899,198.793 110.197 C 198.302 117.905,198.451 117.677,195.706 114.903 C 194.438 113.621,191.780 111.339,189.800 109.832 C 187.820 108.325,185.975 106.915,185.700 106.697 C 184.828 106.008,185.159 106.725,186.340 108.086 C 189.190 111.369,193.672 118.588,196.624 124.646 L 198.400 128.293 198.400 137.523 C 198.400 148.602,198.336 148.706,194.779 143.400 C 191.754 138.889,186.958 134.771,181.200 131.740 C 175.812 128.904,176.008 129.277,183.433 136.000 C 189.082 141.115,193.611 146.861,196.814 152.979 L 198.400 156.007 198.400 161.980 C 198.400 168.860,198.499 168.692,194.939 167.800 C 192.379 167.157,191.588 166.886,188.940 165.744 C 188.246 165.445,187.554 165.200,187.401 165.200 C 186.519 165.200,179.733 160.240,177.068 157.647 C 171.705 152.429,168.698 147.114,167.198 140.200 C 166.960 139.100,166.593 137.432,166.382 136.494 C 162.329 118.411,177.581 89.774,199.000 75.249 C 202.008 73.209,201.843 73.199,205.449 75.633 M264.720 152.080 C 265.918 153.278,264.805 162.716,262.514 170.800 C 257.105 189.878,243.138 206.185,226.245 213.143 C 221.494 215.100,221.119 215.104,219.810 213.214 C 218.673 211.573,215.151 208.274,211.277 205.219 C 208.383 202.937,208.373 202.804,210.824 199.272 C 219.832 186.288,233.407 175.405,246.600 170.592 C 247.700 170.191,248.780 169.734,249.000 169.577 C 249.220 169.421,249.983 169.168,250.695 169.015 C 253.946 168.320,252.477 167.759,249.120 168.413 C 232.242 171.702,216.176 182.003,205.687 196.260 C 203.526 199.198,202.731 199.563,201.564 198.157 C 201.310 197.851,200.947 197.600,200.758 197.600 C 200.569 197.600,199.286 196.917,197.907 196.082 C 195.879 194.854,189.740 191.731,186.800 190.432 C 186.157 190.148,175.389 186.672,172.400 185.783 C 169.948 185.054,165.577 184.139,162.200 183.646 C 160.660 183.422,157.680 182.959,155.577 182.619 C 153.474 182.279,150.569 182.000,149.121 182.000 C 145.795 182.000,145.226 181.528,143.820 177.600 C 140.839 169.271,138.895 160.839,139.257 157.800 C 139.530 155.510,145.594 155.773,159.600 158.681 C 167.973 160.420,181.863 167.107,188.214 172.456 C 194.444 177.704,199.286 182.574,200.758 185.072 C 201.145 185.730,201.329 185.626,202.663 184.000 C 214.850 169.135,240.502 155.192,261.400 152.074 C 262.720 151.877,263.899 151.690,264.020 151.658 C 264.141 151.626,264.456 151.816,264.720 152.080 M154.400 185.577 C 156.270 185.806,158.520 186.162,159.400 186.369 C 160.280 186.576,162.350 187.041,164.000 187.404 C 172.902 189.359,179.062 191.651,186.800 195.888 C 192.008 198.740,193.178 199.425,196.400 201.507 C 202.136 205.213,213.200 215.320,213.200 216.853 C 213.200 218.013,201.508 218.843,196.628 218.030 C 174.724 214.379,159.512 204.718,149.090 187.837 C 147.424 185.139,147.503 184.635,149.547 184.942 C 150.346 185.062,152.530 185.348,154.400 185.577 M143.800 241.005 C 148.125 241.493,152.636 244.299,154.848 247.878 C 155.865 249.524,155.808 249.589,152.125 250.971 L 149.251 252.051 147.635 250.435 C 142.023 244.823,132.649 247.484,130.575 255.277 C 127.230 267.843,140.920 276.171,148.910 266.433 C 149.572 265.627,149.696 265.608,150.710 266.167 C 151.310 266.497,152.655 267.139,153.700 267.594 C 156.256 268.705,155.735 270.596,152.012 273.729 C 139.243 284.473,119.311 271.780,122.776 255.112 C 124.484 246.897,134.071 239.182,140.800 240.607 C 141.130 240.677,142.480 240.856,143.800 241.005 M77.000 242.157 C 80.751 243.839,82.160 246.143,82.183 250.629 C 82.201 253.971,81.023 256.833,79.369 257.467 C 78.929 257.636,79.284 258.184,80.739 259.579 C 86.768 265.359,83.627 274.840,75.165 276.404 C 73.935 276.631,69.165 276.768,64.565 276.708 L 56.200 276.600 56.096 259.400 C 56.038 249.940,56.083 241.961,56.195 241.668 C 56.538 240.774,74.879 241.205,77.000 242.157 M108.458 242.300 C 108.701 242.905,109.048 243.760,109.229 244.200 C 109.410 244.640,110.107 246.395,110.779 248.100 C 111.450 249.805,112.550 252.595,113.221 254.300 C 113.893 256.005,114.603 257.760,114.800 258.200 C 114.997 258.640,115.723 260.440,116.413 262.200 C 117.104 263.960,117.829 265.760,118.024 266.200 C 118.218 266.640,118.748 267.990,119.200 269.200 C 120.076 271.543,120.313 272.131,121.345 274.514 C 122.329 276.788,122.313 276.800,118.250 276.800 L 114.501 276.800 112.880 272.900 L 111.260 269.000 104.280 268.891 L 97.300 268.782 96.388 271.091 C 95.887 272.361,95.140 274.165,94.728 275.100 L 93.980 276.800 90.390 276.800 C 86.425 276.800,86.325 276.718,87.373 274.314 C 87.687 273.591,88.510 271.560,89.201 269.800 C 89.891 268.040,90.726 265.970,91.055 265.200 C 92.162 262.614,92.326 262.211,93.594 259.000 C 94.288 257.240,95.114 255.233,95.428 254.540 C 95.743 253.846,96.000 253.079,96.000 252.834 C 96.000 252.589,96.174 252.077,96.387 251.695 C 96.599 251.313,97.338 249.560,98.028 247.800 C 98.719 246.040,99.626 243.835,100.044 242.900 L 100.804 241.200 104.411 241.200 C 107.971 241.200,108.023 241.214,108.458 242.300 M168.800 248.906 L 169.000 256.412 171.663 253.306 C 173.128 251.598,174.724 249.750,175.209 249.200 C 175.694 248.650,177.443 246.625,179.096 244.700 L 182.101 241.200 186.484 241.200 C 188.989 241.200,190.810 241.358,190.733 241.569 C 190.660 241.772,187.900 245.039,184.600 248.829 C 181.300 252.619,178.195 256.188,177.700 256.760 C 176.561 258.078,176.573 258.336,177.839 259.800 C 181.074 263.540,191.421 276.096,191.533 276.419 C 191.613 276.646,189.805 276.800,187.052 276.800 L 182.437 276.800 181.118 275.090 C 180.393 274.150,177.843 270.989,175.450 268.065 L 171.101 262.749 169.967 264.074 C 168.853 265.376,168.832 265.491,168.816 270.467 C 168.795 277.160,169.014 276.800,164.957 276.800 C 163.111 276.800,161.597 276.665,161.593 276.500 C 161.581 276.010,161.577 244.751,161.589 242.884 L 161.600 241.169 165.100 241.284 L 168.600 241.400 168.800 248.906 M219.916 244.500 L 219.800 247.800 211.800 248.000 L 203.800 248.200 203.771 252.091 L 203.743 255.983 210.971 256.091 L 218.200 256.200 218.200 259.400 L 218.200 262.600 211.000 262.800 L 203.800 263.000 203.755 266.692 L 203.709 270.384 211.955 270.492 L 220.200 270.600 220.317 273.706 L 220.434 276.812 208.517 276.706 L 196.600 276.600 196.496 258.900 L 196.392 241.200 208.212 241.200 L 220.032 241.200 219.916 244.500 M240.813 251.378 C 243.593 256.865,246.033 261.411,246.237 261.479 C 246.440 261.547,248.941 257.006,251.794 251.388 L 256.982 241.174 260.991 241.287 L 265.000 241.400 265.000 259.000 L 265.000 276.600 261.835 276.718 C 257.815 276.868,257.990 277.221,258.014 269.000 C 258.025 265.260,258.023 260.400,258.010 258.200 L 257.986 254.200 256.760 256.400 C 256.087 257.610,254.937 259.680,254.206 261.000 C 247.276 273.515,247.893 272.590,246.388 272.717 C 245.121 272.823,242.400 269.761,242.400 268.230 C 242.400 268.095,241.978 267.313,241.463 266.492 C 240.562 265.057,238.901 262.127,237.341 259.218 C 236.934 258.458,236.403 257.619,236.163 257.352 C 235.922 257.086,235.472 256.268,235.163 255.534 C 234.655 254.331,234.580 255.300,234.400 265.400 L 234.200 276.600 230.900 276.716 L 227.600 276.832 227.600 259.002 L 227.600 241.172 231.680 241.286 L 235.761 241.400 240.813 251.378 M292.616 241.817 C 299.666 243.642,302.336 252.931,297.014 257.118 L 296.005 257.911 297.029 258.582 C 302.751 262.331,302.621 271.285,296.793 274.880 C 293.699 276.789,274.511 277.910,273.863 276.220 C 273.695 275.781,273.792 243.037,273.966 241.500 C 274.035 240.890,290.090 241.163,292.616 241.817 M327.785 243.900 C 328.393 245.385,329.119 247.140,329.397 247.800 C 329.675 248.460,330.924 251.610,332.173 254.800 C 333.421 257.990,334.607 260.960,334.809 261.400 C 335.010 261.840,336.005 264.360,337.020 267.000 C 339.111 272.440,339.873 274.297,340.419 275.295 C 341.193 276.706,340.884 276.831,336.910 276.714 L 333.019 276.600 331.898 273.800 C 331.282 272.260,330.585 270.505,330.350 269.900 L 329.922 268.800 322.800 268.800 L 315.678 268.800 315.250 269.900 C 315.015 270.505,314.318 272.260,313.702 273.800 L 312.581 276.600 308.890 276.715 C 306.861 276.778,305.200 276.711,305.200 276.565 C 305.200 276.308,307.686 269.820,308.405 268.200 C 308.600 267.760,309.405 265.780,310.194 263.800 C 310.983 261.820,311.780 259.840,311.966 259.400 C 312.152 258.960,312.617 257.790,313.000 256.800 C 313.889 254.500,314.206 253.721,314.955 252.000 C 315.290 251.230,315.937 249.610,316.393 248.400 C 316.849 247.190,317.376 245.840,317.563 245.400 C 317.751 244.960,318.223 243.835,318.613 242.900 L 319.321 241.200 323.001 241.200 L 326.680 241.200 327.785 243.900 M63.600 251.635 L 63.600 255.671 67.972 255.535 C 73.227 255.373,74.515 254.736,74.728 252.198 C 75.049 248.376,73.883 247.600,67.820 247.600 L 63.600 247.600 63.600 251.635 M281.200 251.600 L 281.200 255.600 284.940 255.600 C 290.564 255.600,292.412 254.587,292.391 251.514 C 292.371 248.613,290.517 247.600,285.226 247.600 L 281.200 247.600 281.200 251.600 M103.705 251.912 C 103.442 252.511,102.794 254.170,102.266 255.600 C 101.738 257.030,100.925 259.145,100.459 260.300 C 99.993 261.455,99.744 262.412,99.906 262.426 C 101.878 262.601,108.600 262.367,108.600 262.123 C 108.600 261.654,104.749 251.453,104.443 251.112 C 104.301 250.954,103.969 251.314,103.705 251.912 M322.050 252.100 C 321.461 254.075,319.660 258.921,319.258 259.613 C 319.062 259.950,318.782 260.770,318.636 261.435 L 318.371 262.645 322.685 262.577 C 325.058 262.539,327.048 262.394,327.107 262.253 C 327.251 261.910,326.761 259.902,326.411 259.400 C 326.258 259.180,325.450 257.155,324.616 254.900 C 322.978 250.470,322.644 250.107,322.050 252.100 M63.600 266.200 L 63.600 270.400 67.550 270.400 C 74.406 270.400,76.000 269.577,76.000 266.035 C 76.000 262.557,74.993 262.000,68.704 262.000 L 63.600 262.000 63.600 266.200 M281.200 266.233 L 281.200 270.465 286.175 270.333 C 292.231 270.171,293.600 269.381,293.600 266.047 C 293.600 262.627,292.473 262.000,286.325 262.000 L 281.200 262.000 281.200 266.233 M199.448 293.827 C 201.738 295.243,201.910 296.104,200.172 297.444 L 198.944 298.392 197.594 297.396 C 195.588 295.916,191.600 296.221,191.600 297.855 C 191.600 298.892,192.802 299.674,195.802 300.589 C 199.867 301.829,201.684 303.243,202.372 305.701 C 204.320 312.656,192.948 316.229,187.400 310.405 L 186.200 309.145 187.600 307.983 C 189.148 306.699,189.810 306.529,190.120 307.337 C 190.449 308.192,192.972 309.200,194.787 309.200 C 199.631 309.200,199.013 305.034,194.045 304.204 C 190.010 303.530,187.400 301.172,187.400 298.200 C 187.400 293.139,194.290 290.638,199.448 293.827 M248.528 293.167 C 252.318 294.894,253.212 296.633,251.009 297.995 L 249.618 298.854 248.275 297.830 C 243.477 294.170,237.658 298.059,238.594 304.300 C 239.326 309.182,245.690 311.022,248.687 307.218 C 249.848 305.746,249.340 305.200,246.808 305.200 C 244.610 305.200,244.395 305.121,244.172 304.232 C 243.596 301.937,243.824 301.810,248.705 301.687 L 253.200 301.574 253.200 305.025 C 253.200 315.962,236.804 316.297,234.367 305.409 C 232.502 297.074,240.993 289.734,248.528 293.167 M131.579 293.359 C 135.242 294.682,136.707 300.149,134.259 303.359 C 132.742 305.347,131.895 305.700,128.001 305.967 L 124.600 306.200 124.484 309.721 L 124.368 313.243 122.484 313.121 L 120.600 313.000 120.493 303.408 C 120.433 298.132,120.473 293.587,120.580 293.308 C 120.842 292.625,129.662 292.666,131.579 293.359 M152.587 294.500 C 153.801 297.413,153.927 297.722,155.146 300.800 C 160.559 314.472,160.332 313.284,157.503 313.121 L 155.406 313.000 154.648 310.887 L 153.890 308.773 149.900 308.887 L 145.909 309.000 145.127 311.100 L 144.344 313.200 142.372 313.200 C 140.045 313.200,139.913 312.798,141.233 309.733 C 141.691 308.670,142.954 305.460,144.039 302.600 C 146.040 297.330,146.182 296.972,147.338 294.300 C 148.380 291.893,151.551 292.014,152.587 294.500 M169.431 296.600 C 171.471 300.019,172.400 301.092,172.400 300.031 C 172.400 299.827,173.323 298.117,174.450 296.231 L 176.500 292.800 178.650 292.800 C 179.833 292.800,180.800 292.966,180.800 293.169 C 180.800 293.565,177.517 299.267,175.345 302.646 C 174.102 304.578,174.023 304.923,173.915 308.846 L 173.800 313.000 171.900 313.122 C 170.551 313.208,169.992 313.092,169.974 312.722 C 169.959 312.435,169.966 310.670,169.989 308.800 L 170.031 305.400 166.416 299.433 C 162.149 292.392,162.237 292.800,164.982 292.800 L 167.163 292.800 169.431 296.600 M221.387 294.500 C 221.777 295.435,222.247 296.560,222.431 297.000 C 222.615 297.440,223.592 299.960,224.603 302.600 C 227.043 308.977,227.616 310.428,228.120 311.508 C 228.414 312.139,228.416 312.544,228.126 312.834 C 227.512 313.448,224.338 313.116,223.989 312.400 C 223.829 312.070,223.405 311.118,223.048 310.286 L 222.399 308.771 218.554 308.886 L 214.709 309.000 213.927 311.100 L 213.144 313.200 211.172 313.200 C 208.906 313.200,208.714 312.749,209.855 310.114 C 211.030 307.401,211.167 307.056,213.004 302.200 C 214.003 299.560,214.988 297.040,215.192 296.600 C 215.397 296.160,215.833 295.125,216.162 294.300 C 217.123 291.886,220.349 292.009,221.387 294.500 M275.522 294.700 L 275.400 296.600 270.900 296.713 L 266.400 296.826 266.400 299.013 L 266.400 301.200 270.422 301.200 L 274.444 301.200 274.322 303.100 L 274.200 305.000 270.300 305.114 L 266.400 305.229 266.400 307.214 L 266.400 309.200 270.958 309.200 L 275.516 309.200 275.666 310.775 C 275.904 313.269,276.095 313.200,268.967 313.200 L 262.400 313.200 262.400 303.000 L 262.400 292.800 269.022 292.800 L 275.644 292.800 275.522 294.700 M124.400 299.400 L 124.400 302.400 127.138 302.400 C 130.395 302.400,131.200 301.796,131.200 299.355 C 131.200 297.285,129.833 296.400,126.638 296.400 L 124.400 296.400 124.400 299.400 M148.688 301.740 C 148.089 303.349,147.600 304.785,147.600 304.932 C 147.600 305.080,148.699 305.200,150.043 305.200 C 152.208 305.200,152.454 305.121,152.208 304.500 C 152.056 304.115,151.564 302.810,151.116 301.600 C 149.962 298.485,149.897 298.489,148.688 301.740 M217.488 301.740 C 216.889 303.349,216.400 304.785,216.400 304.932 C 216.400 305.080,217.480 305.200,218.800 305.200 C 221.124 305.200,221.576 304.976,220.856 304.180 C 220.667 303.971,220.180 302.810,219.775 301.600 C 218.734 298.490,218.695 298.492,217.488 301.740 " stroke="none" fill="#e9e8e6" fill-rule="evenodd"></path><path id="path2" d="M201.062 73.900 C 200.960 74.065,201.382 74.200,202.000 74.200 C 202.618 74.200,203.040 74.065,202.938 73.900 C 202.836 73.735,202.414 73.600,202.000 73.600 C 201.586 73.600,201.164 73.735,201.062 73.900 M214.000 82.510 C 214.000 82.571,215.395 83.966,217.100 85.610 L 220.200 88.600 217.210 85.500 C 214.433 82.621,214.000 82.217,214.000 82.510 M186.585 85.700 L 184.600 87.800 186.700 85.815 C 187.855 84.723,188.800 83.778,188.800 83.715 C 188.800 83.417,188.429 83.749,186.585 85.700 M201.228 86.300 C 201.338 87.473,201.946 88.126,201.972 87.100 C 201.987 86.495,201.820 86.000,201.600 86.000 C 201.380 86.000,201.213 86.135,201.228 86.300 M202.101 91.800 C 202.105 92.680,202.187 92.993,202.283 92.495 C 202.379 91.998,202.375 91.278,202.275 90.895 C 202.175 90.513,202.096 90.920,202.101 91.800 M200.493 93.200 C 200.493 93.970,200.575 94.285,200.676 93.900 C 200.776 93.515,200.776 92.885,200.676 92.500 C 200.575 92.115,200.493 92.430,200.493 93.200 M224.800 94.800 C 225.270 95.460,225.744 96.000,225.854 96.000 C 225.964 96.000,225.670 95.460,225.200 94.800 C 224.730 94.140,224.256 93.600,224.146 93.600 C 224.036 93.600,224.330 94.140,224.800 94.800 M202.542 101.800 C 202.541 103.780,202.608 104.640,202.692 103.712 C 202.776 102.784,202.777 101.164,202.695 100.112 C 202.612 99.060,202.543 99.820,202.542 101.800 M199.293 102.000 C 199.293 102.770,199.375 103.085,199.476 102.700 C 199.576 102.315,199.576 101.685,199.476 101.300 C 199.375 100.915,199.293 101.230,199.293 102.000 M202.894 118.276 C 202.807 129.485,202.981 131.725,203.834 130.345 C 204.014 130.054,203.950 129.983,203.668 130.158 C 203.331 130.366,203.182 127.265,203.100 118.320 L 202.988 106.200 202.894 118.276 M198.520 111.200 C 198.520 112.410,198.595 112.905,198.687 112.300 C 198.778 111.695,198.778 110.705,198.687 110.100 C 198.595 109.495,198.520 109.990,198.520 111.200 M220.168 110.540 C 220.029 110.901,219.785 111.114,219.625 111.015 C 219.464 110.916,219.333 111.107,219.333 111.440 C 219.333 111.911,219.512 111.866,220.144 111.233 C 220.591 110.787,220.835 110.301,220.687 110.154 C 220.540 110.006,220.306 110.180,220.168 110.540 M198.060 115.549 C 198.006 116.773,197.935 116.847,197.300 116.349 C 196.662 115.849,196.650 115.863,197.163 116.517 C 197.904 117.461,198.512 116.831,198.291 115.349 C 198.128 114.258,198.117 114.268,198.060 115.549 M213.178 115.900 L 211.800 117.400 213.300 116.022 C 214.696 114.738,214.984 114.400,214.678 114.400 C 214.612 114.400,213.937 115.075,213.178 115.900 M166.155 130.600 C 166.156 133.460,166.220 134.578,166.297 133.083 C 166.374 131.589,166.374 129.249,166.296 127.883 C 166.218 126.518,166.155 127.740,166.155 130.600 M198.092 137.370 L 198.000 146.939 196.900 145.970 L 195.800 145.000 196.775 146.105 C 198.303 147.839,198.422 147.140,198.300 137.172 L 198.185 127.800 198.092 137.370 M176.432 129.417 C 176.414 129.646,177.255 130.636,178.300 131.617 C 180.133 133.338,180.147 133.344,178.692 131.775 C 177.862 130.881,177.322 129.997,177.492 129.811 C 177.661 129.624,177.590 129.592,177.334 129.738 C 177.078 129.885,176.777 129.779,176.666 129.502 C 176.554 129.226,176.449 129.188,176.432 129.417 M190.783 138.500 C 191.764 139.545,192.619 140.400,192.683 140.400 C 192.984 140.400,192.666 140.041,190.900 138.383 L 189.000 136.600 190.783 138.500 M187.600 140.525 C 187.600 140.594,188.185 141.179,188.900 141.825 L 190.200 143.000 189.025 141.700 C 187.930 140.488,187.600 140.216,187.600 140.525 M264.940 155.600 C 264.940 157.470,265.009 158.235,265.093 157.300 C 265.177 156.365,265.177 154.835,265.093 153.900 C 265.009 152.965,264.940 153.730,264.940 155.600 M197.919 161.589 C 198.028 167.426,197.980 167.953,197.319 168.109 C 196.738 168.246,196.753 168.271,197.400 168.239 C 198.239 168.198,198.903 156.345,198.111 155.550 C 197.940 155.378,197.853 158.096,197.919 161.589 M202.962 161.800 C 202.962 165.320,203.024 166.706,203.098 164.881 C 203.172 163.056,203.172 160.176,203.097 158.481 C 203.022 156.786,202.961 158.280,202.962 161.800 M139.364 156.951 C 139.247 157.254,139.220 158.379,139.304 159.451 L 139.456 161.400 139.528 159.133 C 139.572 157.754,139.796 156.788,140.100 156.665 C 140.492 156.507,140.489 156.456,140.087 156.432 C 139.806 156.414,139.480 156.648,139.364 156.951 M145.500 156.682 C 145.995 156.778,146.805 156.778,147.300 156.682 C 147.795 156.587,147.390 156.509,146.400 156.509 C 145.410 156.509,145.005 156.587,145.500 156.682 M157.000 158.400 C 157.440 158.589,158.160 158.738,158.600 158.732 C 159.243 158.723,159.204 158.657,158.400 158.400 C 157.032 157.962,155.981 157.962,157.000 158.400 M216.800 165.000 C 216.250 165.314,215.980 165.572,216.200 165.572 C 216.420 165.572,217.050 165.314,217.600 165.000 C 218.150 164.686,218.420 164.428,218.200 164.428 C 217.980 164.428,217.350 164.686,216.800 165.000 M211.600 175.234 L 209.800 176.865 211.700 175.384 C 213.366 174.086,213.859 173.597,213.500 173.601 C 213.445 173.602,212.590 174.336,211.600 175.234 M194.800 178.600 C 196.217 180.030,197.467 181.200,197.577 181.200 C 197.687 181.200,196.617 180.030,195.200 178.600 C 193.783 177.170,192.533 176.000,192.423 176.000 C 192.313 176.000,193.383 177.170,194.800 178.600 M206.788 179.500 L 204.200 182.200 206.900 179.612 C 208.385 178.188,209.600 176.973,209.600 176.912 C 209.600 176.617,209.193 176.992,206.788 179.500 M147.300 181.887 C 147.905 181.978,148.895 181.978,149.500 181.887 C 150.105 181.795,149.610 181.720,148.400 181.720 C 147.190 181.720,146.695 181.795,147.300 181.887 M147.852 185.116 C 147.744 185.290,148.273 185.361,149.028 185.273 C 149.783 185.185,150.400 185.042,150.400 184.956 C 150.400 184.655,148.045 184.803,147.852 185.116 M156.433 186.144 C 156.525 186.224,157.410 186.396,158.400 186.527 C 159.602 186.686,159.934 186.647,159.400 186.410 C 158.636 186.072,156.086 185.843,156.433 186.144 M245.978 199.500 L 244.600 201.000 246.100 199.622 C 247.496 198.338,247.784 198.000,247.478 198.000 C 247.412 198.000,246.737 198.675,245.978 199.500 M242.175 202.900 L 241.000 204.200 242.300 203.025 C 243.015 202.379,243.600 201.794,243.600 201.725 C 243.600 201.416,243.270 201.688,242.175 202.900 M197.200 202.162 C 197.200 202.272,198.010 202.919,199.000 203.600 C 199.990 204.281,200.800 204.748,200.800 204.638 C 200.800 204.528,199.990 203.881,199.000 203.200 C 198.010 202.519,197.200 202.052,197.200 202.162 M208.200 211.600 C 210.833 214.240,213.077 216.400,213.187 216.400 C 213.297 216.400,211.233 214.240,208.600 211.600 C 205.967 208.960,203.723 206.800,203.613 206.800 C 203.503 206.800,205.567 208.960,208.200 211.600 M200.100 218.297 C 201.585 218.374,204.015 218.374,205.500 218.297 C 206.985 218.220,205.770 218.157,202.800 218.157 C 199.830 218.157,198.615 218.220,200.100 218.297 M56.267 241.467 C 55.897 241.837,55.929 276.309,56.300 276.538 C 56.465 276.640,56.600 268.731,56.600 258.962 C 56.600 249.193,56.585 241.200,56.567 241.200 C 56.548 241.200,56.413 241.320,56.267 241.467 M168.316 249.038 C 168.423 256.152,168.648 257.617,169.438 256.338 C 169.615 256.052,169.548 255.985,169.262 256.162 C 168.919 256.374,168.800 254.539,168.800 249.047 C 168.800 244.977,168.665 241.564,168.500 241.461 C 168.335 241.359,168.252 244.768,168.316 249.038 M189.634 242.553 L 188.669 243.800 189.813 242.712 C 190.443 242.114,190.877 241.553,190.779 241.465 C 190.680 241.377,190.165 241.867,189.634 242.553 M196.489 258.676 C 196.440 268.398,196.535 276.436,196.700 276.539 C 196.973 276.707,196.967 262.984,196.688 247.200 C 196.628 243.790,196.538 248.954,196.489 258.676 M264.600 259.000 C 264.600 268.748,264.735 276.640,264.900 276.538 C 265.065 276.436,265.200 268.544,265.200 259.000 C 265.200 249.456,265.065 241.564,264.900 241.462 C 264.735 241.360,264.600 249.252,264.600 259.000 M77.800 242.652 C 78.020 242.845,78.920 243.632,79.799 244.401 L 81.398 245.800 80.199 244.466 C 79.540 243.732,78.640 242.945,78.200 242.717 C 77.760 242.489,77.580 242.460,77.800 242.652 M296.000 243.325 C 296.000 243.394,296.585 243.979,297.300 244.625 L 298.600 245.800 297.425 244.500 C 296.330 243.288,296.000 243.016,296.000 243.325 M187.375 245.300 L 186.200 246.600 187.500 245.425 C 188.712 244.330,188.984 244.000,188.675 244.000 C 188.606 244.000,188.021 244.585,187.375 245.300 M184.778 248.300 L 183.400 249.800 184.900 248.422 C 186.296 247.138,186.584 246.800,186.278 246.800 C 186.212 246.800,185.537 247.475,184.778 248.300 M299.058 248.000 C 299.375 249.725,299.602 250.051,299.594 248.767 C 299.591 248.235,299.411 247.530,299.194 247.200 C 298.918 246.778,298.877 247.015,299.058 248.000 M139.507 247.490 C 140.226 247.579,141.306 247.577,141.907 247.486 C 142.508 247.395,141.920 247.322,140.600 247.324 C 139.280 247.326,138.788 247.401,139.507 247.490 M211.700 247.500 C 207.245 247.564,203.600 247.748,203.600 247.908 C 203.599 248.344,219.332 248.028,219.777 247.583 C 219.988 247.372,220.079 247.241,219.980 247.291 C 219.881 247.341,216.155 247.435,211.700 247.500 M63.348 251.600 C 63.348 253.910,63.414 254.855,63.495 253.700 C 63.576 252.545,63.576 250.655,63.495 249.500 C 63.414 248.345,63.348 249.290,63.348 251.600 M273.714 249.400 C 273.717 250.500,273.795 250.903,273.887 250.295 C 273.979 249.686,273.977 248.786,273.882 248.295 C 273.787 247.803,273.711 248.300,273.714 249.400 M280.948 251.600 C 280.948 253.910,281.014 254.855,281.095 253.700 C 281.176 252.545,281.176 250.655,281.095 249.500 C 281.014 248.345,280.948 249.290,280.948 251.600 M290.200 248.064 C 290.640 248.306,291.327 248.886,291.727 249.352 L 292.454 250.200 292.018 249.309 C 291.602 248.459,290.423 247.586,289.726 247.612 C 289.547 247.619,289.760 247.822,290.200 248.064 M82.114 250.600 C 82.117 251.700,82.195 252.103,82.287 251.495 C 82.379 250.886,82.377 249.986,82.282 249.495 C 82.187 249.003,82.111 249.500,82.114 250.600 M74.909 251.600 C 74.909 252.590,74.987 252.995,75.082 252.500 C 75.178 252.005,75.178 251.195,75.082 250.700 C 74.987 250.205,74.909 250.610,74.909 251.600 M103.726 251.100 C 103.589 251.485,103.387 251.963,103.277 252.162 C 103.166 252.361,103.284 252.395,103.538 252.238 C 103.792 252.081,104.000 251.683,104.000 251.353 C 104.000 251.001,104.191 250.871,104.462 251.038 C 104.748 251.215,104.815 251.148,104.638 250.862 C 104.244 250.223,104.017 250.283,103.726 251.100 M181.775 251.700 L 180.600 253.000 181.900 251.825 C 183.112 250.730,183.384 250.400,183.075 250.400 C 183.006 250.400,182.421 250.985,181.775 251.700 M148.809 251.767 C 149.030 251.990,149.533 251.972,150.087 251.723 C 150.937 251.340,150.912 251.314,149.722 251.356 C 148.948 251.382,148.587 251.545,148.809 251.767 M170.975 254.100 L 169.800 255.400 171.100 254.225 C 172.312 253.130,172.584 252.800,172.275 252.800 C 172.206 252.800,171.621 253.385,170.975 254.100 M233.912 265.380 C 233.850 271.640,233.929 276.631,234.087 276.473 C 234.465 276.095,234.686 253.999,234.312 254.000 C 234.154 254.000,233.974 259.121,233.912 265.380 M257.909 256.899 C 258.098 261.881,258.269 262.365,258.336 258.100 C 258.371 255.845,258.265 254.000,258.100 253.999 C 257.935 253.999,257.849 255.304,257.909 256.899 M130.249 255.015 C 130.112 255.373,130.015 255.966,130.034 256.333 C 130.053 256.700,130.227 256.469,130.421 255.820 C 130.798 254.558,130.665 253.933,130.249 255.015 M79.478 256.947 C 78.419 257.814,78.396 257.896,79.078 258.413 C 79.618 258.823,79.682 258.828,79.333 258.433 C 78.967 258.020,79.097 257.702,79.933 256.965 C 81.305 255.757,80.950 255.742,79.478 256.947 M122.537 259.000 C 122.539 260.760,122.609 261.430,122.693 260.489 C 122.778 259.549,122.777 258.109,122.691 257.289 C 122.605 256.470,122.536 257.240,122.537 259.000 M206.000 256.274 C 212.398 256.562,218.310 256.575,218.139 256.300 C 218.037 256.135,214.678 256.035,210.676 256.078 C 206.674 256.121,204.570 256.209,206.000 256.274 M176.880 257.280 C 176.218 257.942,176.279 258.602,177.064 259.251 C 177.670 259.751,177.681 259.723,177.188 258.932 C 176.742 258.216,176.739 257.955,177.173 257.432 C 177.788 256.692,177.578 256.582,176.880 257.280 M107.267 258.420 C 107.501 259.092,107.767 259.567,107.857 259.476 C 108.056 259.278,107.301 257.200,107.031 257.200 C 106.927 257.200,107.033 257.749,107.267 258.420 M273.693 258.800 C 273.693 259.570,273.775 259.885,273.876 259.500 C 273.976 259.115,273.976 258.485,273.876 258.100 C 273.775 257.715,273.693 258.030,273.693 258.800 M130.006 261.833 C 130.009 262.255,130.195 262.870,130.418 263.200 C 130.715 263.638,130.752 263.476,130.556 262.600 C 130.227 261.129,129.998 260.810,130.006 261.833 M63.372 262.128 C 63.261 262.419,63.229 264.444,63.301 266.628 L 63.433 270.600 63.516 266.312 L 63.600 262.025 68.500 261.899 L 73.400 261.773 68.487 261.686 C 64.723 261.620,63.528 261.723,63.372 262.128 M280.887 266.100 L 281.000 270.600 285.200 270.620 L 289.400 270.641 285.300 270.507 L 281.200 270.373 281.200 266.199 L 281.200 262.025 286.100 261.899 L 291.000 261.773 285.887 261.686 L 280.774 261.600 280.887 266.100 M210.800 262.400 L 203.400 262.627 210.676 262.714 C 215.191 262.767,218.047 262.648,218.200 262.400 C 218.336 262.180,218.392 262.039,218.324 262.086 C 218.256 262.134,214.870 262.275,210.800 262.400 M102.500 262.694 C 103.545 262.776,105.255 262.776,106.300 262.694 C 107.345 262.612,106.490 262.544,104.400 262.544 C 102.310 262.544,101.455 262.612,102.500 262.694 M258.078 269.000 C 258.042 272.740,258.144 276.009,258.306 276.264 C 258.468 276.519,258.552 274.269,258.492 271.264 C 258.321 262.574,258.150 261.636,258.078 269.000 M324.300 262.682 C 324.795 262.778,325.605 262.778,326.100 262.682 C 326.595 262.587,326.190 262.509,325.200 262.509 C 324.210 262.509,323.805 262.587,324.300 262.682 M180.000 262.925 C 180.000 262.994,180.585 263.579,181.300 264.225 L 182.600 265.400 181.425 264.100 C 180.330 262.888,180.000 262.616,180.000 262.925 M169.258 264.539 C 168.425 265.425,168.383 265.773,168.501 270.839 L 168.625 276.200 168.713 270.826 C 168.792 265.924,168.877 265.370,169.670 264.526 C 170.148 264.017,170.449 263.600,170.339 263.600 C 170.229 263.600,169.743 264.022,169.258 264.539 M273.744 267.200 C 273.744 269.290,273.812 270.145,273.894 269.100 C 273.976 268.055,273.976 266.345,273.894 265.300 C 273.812 264.255,273.744 265.110,273.744 267.200 M83.482 265.800 C 83.609 266.900,83.777 267.875,83.856 267.967 C 84.155 268.314,83.928 265.364,83.597 264.600 C 83.374 264.085,83.333 264.513,83.482 265.800 M76.109 266.000 C 76.109 266.990,76.187 267.395,76.282 266.900 C 76.378 266.405,76.378 265.595,76.282 265.100 C 76.187 264.605,76.109 265.010,76.109 266.000 M203.701 266.200 C 203.705 267.080,203.787 267.393,203.883 266.895 C 203.979 266.398,203.975 265.678,203.875 265.295 C 203.775 264.913,203.696 265.320,203.701 266.200 M149.178 266.058 C 148.681 266.404,148.684 266.436,149.200 266.285 C 149.530 266.187,150.115 266.270,150.500 266.468 C 150.885 266.666,151.200 266.738,151.200 266.628 C 151.200 266.102,149.717 265.684,149.178 266.058 M118.067 267.220 C 118.301 267.892,118.567 268.367,118.657 268.276 C 118.856 268.078,118.101 266.000,117.831 266.000 C 117.727 266.000,117.833 266.549,118.067 267.220 M142.400 270.400 C 141.016 270.691,141.014 270.695,142.200 270.741 C 142.860 270.767,143.670 270.613,144.000 270.400 C 144.666 269.970,144.445 269.970,142.400 270.400 M65.900 270.695 C 67.055 270.776,68.945 270.776,70.100 270.695 C 71.255 270.614,70.310 270.548,68.000 270.548 C 65.690 270.548,64.745 270.614,65.900 270.695 M211.983 270.695 L 219.967 270.816 220.109 273.708 L 220.250 276.600 220.225 273.600 L 220.200 270.600 212.100 270.587 L 203.999 270.575 211.983 270.695 M152.581 272.900 L 151.000 274.600 152.700 273.019 C 154.281 271.548,154.584 271.200,154.281 271.200 C 154.216 271.200,153.451 271.965,152.581 272.900 M273.701 273.800 C 273.705 274.680,273.787 274.993,273.883 274.495 C 273.979 273.998,273.975 273.278,273.875 272.895 C 273.775 272.513,273.696 272.920,273.701 273.800 M75.800 276.000 C 75.296 276.217,75.222 276.344,75.600 276.344 C 75.930 276.344,76.560 276.189,77.000 276.000 C 77.504 275.783,77.578 275.656,77.200 275.656 C 76.870 275.656,76.240 275.811,75.800 276.000 M72.100 276.676 C 72.485 276.776,73.115 276.776,73.500 276.676 C 73.885 276.575,73.570 276.493,72.800 276.493 C 72.030 276.493,71.715 276.575,72.100 276.676 M289.100 276.682 C 289.595 276.778,290.405 276.778,290.900 276.682 C 291.395 276.587,290.990 276.509,290.000 276.509 C 289.010 276.509,288.605 276.587,289.100 276.682 M143.300 277.076 C 143.685 277.176,144.315 277.176,144.700 277.076 C 145.085 276.975,144.770 276.893,144.000 276.893 C 143.230 276.893,142.915 276.975,143.300 277.076 M139.900 277.482 C 140.395 277.578,141.205 277.578,141.700 277.482 C 142.195 277.387,141.790 277.309,140.800 277.309 C 139.810 277.309,139.405 277.387,139.900 277.482 M246.600 292.800 C 247.040 292.989,247.670 293.144,248.000 293.144 C 248.378 293.144,248.304 293.017,247.800 292.800 C 247.360 292.611,246.730 292.456,246.400 292.456 C 246.022 292.456,246.096 292.583,246.600 292.800 M120.580 293.308 C 120.473 293.587,120.433 298.132,120.493 303.408 L 120.600 313.000 122.400 313.033 L 124.200 313.065 122.500 312.911 L 120.800 312.756 120.800 303.011 C 120.800 295.590,120.919 293.219,121.300 293.065 C 121.692 292.907,121.689 292.856,121.287 292.832 C 121.006 292.814,120.687 293.029,120.580 293.308 M127.900 293.082 C 128.395 293.178,129.205 293.178,129.700 293.082 C 130.195 292.987,129.790 292.909,128.800 292.909 C 127.810 292.909,127.405 292.987,127.900 293.082 M150.100 293.076 C 150.485 293.176,151.115 293.176,151.500 293.076 C 151.885 292.975,151.570 292.893,150.800 292.893 C 150.030 292.893,149.715 292.975,150.100 293.076 M264.900 293.076 C 265.285 293.176,265.915 293.176,266.300 293.076 C 266.685 292.975,266.370 292.893,265.600 292.893 C 264.830 292.893,264.515 292.975,264.900 293.076 M132.033 293.700 C 132.125 293.755,132.740 294.250,133.400 294.800 L 134.600 295.800 133.630 294.700 C 133.097 294.095,132.482 293.600,132.264 293.600 C 132.045 293.600,131.942 293.645,132.033 293.700 M237.667 295.100 L 236.165 296.600 237.582 295.401 C 238.362 294.742,239.171 294.067,239.380 293.901 C 239.589 293.735,239.627 293.600,239.465 293.600 C 239.302 293.600,238.493 294.275,237.667 295.100 M200.818 295.078 C 201.297 295.848,201.269 296.068,200.582 296.878 L 199.800 297.800 200.700 297.038 C 201.771 296.131,201.836 295.493,200.936 294.749 C 200.330 294.248,200.319 294.277,200.818 295.078 M193.700 296.276 C 194.085 296.376,194.715 296.376,195.100 296.276 C 195.485 296.175,195.170 296.093,194.400 296.093 C 193.630 296.093,193.315 296.175,193.700 296.276 M270.800 296.400 L 266.200 296.640 270.676 296.720 C 273.319 296.767,275.254 296.636,275.400 296.400 C 275.536 296.180,275.592 296.036,275.524 296.080 C 275.456 296.124,273.330 296.268,270.800 296.400 M197.373 297.156 C 197.891 297.994,199.129 298.440,199.440 297.901 C 199.598 297.625,199.579 297.536,199.396 297.701 C 199.213 297.867,198.622 297.714,198.083 297.360 C 197.543 297.006,197.224 296.915,197.373 297.156 M217.979 299.455 C 217.758 300.036,217.664 300.597,217.769 300.703 C 217.875 300.808,218.079 300.424,218.223 299.850 C 218.370 299.265,218.670 298.920,218.904 299.065 C 219.149 299.216,219.205 299.131,219.038 298.862 C 218.616 298.179,218.423 298.287,217.979 299.455 M195.400 300.800 C 195.840 300.989,196.470 301.144,196.800 301.144 C 197.178 301.144,197.104 301.017,196.600 300.800 C 196.160 300.611,195.530 300.456,195.200 300.456 C 194.822 300.456,194.896 300.583,195.400 300.800 M216.844 302.444 C 216.598 303.151,216.466 303.800,216.552 303.885 C 216.638 303.971,216.909 303.462,217.156 302.756 C 217.402 302.049,217.534 301.400,217.448 301.315 C 217.362 301.229,217.091 301.738,216.844 302.444 M268.300 301.495 C 269.455 301.576,271.345 301.576,272.500 301.495 C 273.655 301.414,272.710 301.348,270.400 301.348 C 268.090 301.348,267.145 301.414,268.300 301.495 M234.109 303.200 C 234.109 304.190,234.187 304.595,234.282 304.100 C 234.378 303.605,234.378 302.795,234.282 302.300 C 234.187 301.805,234.109 302.210,234.109 303.200 M244.156 302.171 C 244.035 302.485,244.004 303.160,244.086 303.671 C 244.195 304.354,244.288 304.204,244.437 303.100 C 244.647 301.547,244.536 301.181,244.156 302.171 M220.218 302.900 C 220.368 303.395,220.655 303.976,220.856 304.191 C 221.057 304.406,221.019 304.001,220.772 303.291 C 220.265 301.838,219.797 301.508,220.218 302.900 M125.700 302.687 C 126.305 302.778,127.295 302.778,127.900 302.687 C 128.505 302.595,128.010 302.520,126.800 302.520 C 125.590 302.520,125.095 302.595,125.700 302.687 M147.206 304.900 C 147.201 305.506,147.564 305.590,149.900 305.524 L 152.600 305.449 150.210 305.302 C 148.895 305.221,147.683 304.940,147.516 304.677 C 147.311 304.355,147.210 304.428,147.206 304.900 M216.101 304.800 C 216.223 305.249,216.909 305.409,218.832 305.435 L 221.400 305.470 219.010 305.313 C 217.695 305.226,216.466 304.940,216.279 304.677 C 216.041 304.343,215.988 304.380,216.101 304.800 M270.404 304.699 C 268.316 304.773,266.479 304.960,266.322 305.116 C 266.165 305.272,267.783 305.343,269.918 305.273 C 272.053 305.204,273.971 304.979,274.180 304.773 C 274.389 304.568,274.479 304.437,274.380 304.483 C 274.281 304.529,272.492 304.626,270.404 304.699 M173.683 308.678 L 173.600 312.756 171.700 312.906 L 169.800 313.056 171.713 313.128 C 174.056 313.216,174.069 313.188,173.899 308.370 L 173.766 304.600 173.683 308.678 M246.674 305.085 C 248.122 305.174,249.217 305.437,249.313 305.718 C 249.403 305.983,249.458 305.930,249.434 305.600 C 249.402 305.136,248.802 304.992,246.796 304.966 L 244.200 304.933 246.674 305.085 M127.705 305.887 C 128.314 305.979,129.214 305.977,129.705 305.882 C 130.197 305.787,129.700 305.711,128.600 305.714 C 127.500 305.717,127.097 305.795,127.705 305.887 M239.136 306.604 C 239.553 307.464,240.621 308.492,241.600 308.974 C 241.930 309.136,241.770 308.919,241.244 308.491 C 240.718 308.062,239.941 307.282,239.517 306.756 C 238.932 306.030,238.840 305.994,239.136 306.604 M266.352 309.314 C 266.526 309.486,268.722 309.575,271.234 309.512 L 275.800 309.396 270.918 309.198 C 268.234 309.089,266.179 309.141,266.352 309.314 M194.305 309.483 C 194.802 309.579,195.522 309.575,195.905 309.475 C 196.287 309.375,195.880 309.296,195.000 309.301 C 194.120 309.305,193.807 309.387,194.305 309.483 M236.801 310.137 C 237.351 310.762,238.160 311.459,238.600 311.686 C 239.442 312.120,239.418 312.093,237.201 310.197 L 235.803 309.000 236.801 310.137 M243.700 309.476 C 244.085 309.576,244.715 309.576,245.100 309.476 C 245.485 309.375,245.170 309.293,244.400 309.293 C 243.630 309.293,243.315 309.375,243.700 309.476 M154.827 311.326 C 154.726 312.539,155.709 313.200,157.614 313.200 C 158.706 313.200,159.600 313.065,159.600 312.900 C 159.600 312.735,158.735 312.660,157.676 312.733 C 155.988 312.851,155.697 312.753,155.303 311.933 C 155.056 311.420,154.842 311.147,154.827 311.326 M227.869 311.942 C 228.172 313.103,224.699 313.245,224.032 312.100 C 223.808 311.715,223.619 311.589,223.612 311.820 C 223.587 312.675,224.608 313.200,226.293 313.200 C 228.093 313.200,228.950 312.390,228.075 311.515 C 227.768 311.208,227.709 311.330,227.869 311.942 M198.000 312.634 C 196.690 313.170,196.677 313.192,197.800 312.975 C 198.460 312.848,199.171 312.576,199.380 312.372 C 199.859 311.903,199.721 311.929,198.000 312.634 M209.200 312.880 C 209.200 313.056,210.145 313.179,211.300 313.154 C 213.482 313.105,213.272 312.948,210.700 312.703 C 209.875 312.625,209.200 312.704,209.200 312.880 M141.300 313.087 C 141.905 313.178,142.895 313.178,143.500 313.087 C 144.105 312.995,143.610 312.920,142.400 312.920 C 141.190 312.920,140.695 312.995,141.300 313.087 M265.720 313.098 C 267.655 313.172,270.715 313.171,272.520 313.097 C 274.324 313.023,272.740 312.963,269.000 312.964 C 265.260 312.964,263.784 313.025,265.720 313.098 " stroke="none" fill="#96a496" fill-rule="evenodd"></path><path id="path3" d="M139.500 241.082 C 139.995 241.178,140.805 241.178,141.300 241.082 C 141.795 240.987,141.390 240.909,140.400 240.909 C 139.410 240.909,139.005 240.987,139.500 241.082 M56.579 241.710 C 56.471 241.991,56.436 245.996,56.500 250.610 L 56.617 259.000 56.709 250.309 L 56.800 241.617 64.500 241.499 L 72.200 241.382 64.487 241.291 C 58.536 241.221,56.730 241.317,56.579 241.710 M102.700 241.493 C 103.635 241.577,105.165 241.577,106.100 241.493 C 107.035 241.409,106.270 241.340,104.400 241.340 C 102.530 241.340,101.765 241.409,102.700 241.493 M145.000 241.600 C 145.440 241.789,146.070 241.944,146.400 241.944 C 146.778 241.944,146.704 241.817,146.200 241.600 C 145.760 241.411,145.130 241.256,144.800 241.256 C 144.422 241.256,144.496 241.383,145.000 241.600 M161.790 241.683 C 161.680 241.967,161.638 249.940,161.696 259.400 L 161.800 276.600 165.000 276.600 L 168.200 276.600 168.217 271.200 L 168.234 265.800 168.106 271.100 L 167.977 276.400 164.989 276.400 L 162.000 276.400 162.000 259.000 L 162.000 241.600 165.000 241.600 L 168.000 241.600 168.000 249.176 C 168.000 253.343,168.135 256.837,168.300 256.939 C 168.465 257.041,168.510 253.587,168.400 249.263 L 168.200 241.400 165.094 241.283 C 162.836 241.198,161.934 241.307,161.790 241.683 M181.178 242.700 L 179.800 244.200 181.249 242.871 L 182.697 241.543 186.550 241.671 C 188.668 241.742,190.401 241.665,190.401 241.500 C 190.400 241.335,188.635 241.200,186.478 241.200 L 182.557 241.200 181.178 242.700 M208.231 241.497 L 219.663 241.612 219.531 244.588 C 219.459 246.225,219.544 247.419,219.720 247.242 C 219.895 247.065,219.985 245.679,219.920 244.160 L 219.800 241.400 208.300 241.391 L 196.800 241.381 208.231 241.497 M229.700 241.494 C 230.745 241.576,232.455 241.576,233.500 241.494 C 234.545 241.412,233.690 241.344,231.600 241.344 C 229.510 241.344,228.655 241.412,229.700 241.494 M257.062 241.500 C 256.960 241.665,258.642 241.800,260.800 241.800 C 262.958 241.800,264.640 241.665,264.538 241.500 C 264.436 241.335,262.754 241.200,260.800 241.200 C 258.846 241.200,257.164 241.335,257.062 241.500 M274.183 241.700 C 274.077 241.975,274.040 249.850,274.100 259.200 L 274.209 276.200 274.304 258.909 L 274.400 241.618 281.900 241.499 L 289.400 241.381 281.887 241.291 C 276.178 241.222,274.329 241.320,274.183 241.700 M319.192 242.100 C 318.788 242.934,318.799 242.946,319.344 242.270 C 319.847 241.645,320.424 241.558,323.329 241.670 C 325.198 241.741,326.642 241.665,326.540 241.500 C 326.020 240.665,319.634 241.187,319.192 242.100 M227.694 258.851 C 227.587 278.323,227.304 276.908,231.265 276.720 L 233.800 276.600 233.906 265.300 C 234.001 255.209,234.215 252.954,234.937 254.410 C 235.049 254.636,235.094 254.590,235.037 254.310 C 234.980 254.030,234.634 253.742,234.267 253.671 C 233.657 253.552,233.600 254.518,233.600 264.989 L 233.600 276.437 230.900 276.318 L 228.200 276.200 227.994 259.000 L 227.787 241.800 227.694 258.851 M127.978 245.900 L 126.600 247.400 128.100 246.022 C 129.496 244.738,129.784 244.400,129.478 244.400 C 129.412 244.400,128.737 245.075,127.978 245.900 M139.905 247.083 C 140.402 247.179,141.122 247.175,141.505 247.075 C 141.887 246.975,141.480 246.896,140.600 246.901 C 139.720 246.905,139.407 246.987,139.905 247.083 M65.516 247.497 C 66.899 247.575,69.059 247.574,70.316 247.495 C 71.572 247.416,70.440 247.352,67.800 247.353 C 65.160 247.353,64.132 247.418,65.516 247.497 M280.572 247.730 C 280.460 248.022,280.420 249.957,280.484 252.030 L 280.600 255.800 284.600 255.821 L 288.600 255.842 284.700 255.707 L 280.800 255.572 280.800 251.599 L 280.800 247.626 285.300 247.499 L 289.800 247.371 285.287 247.286 C 281.848 247.220,280.727 247.326,280.572 247.730 M203.351 252.000 C 203.351 254.530,203.416 255.565,203.496 254.300 C 203.575 253.035,203.575 250.965,203.496 249.700 C 203.416 248.435,203.351 249.470,203.351 252.000 M175.375 249.300 L 174.200 250.600 175.500 249.425 C 176.712 248.330,176.984 248.000,176.675 248.000 C 176.606 248.000,176.021 248.585,175.375 249.300 M132.647 250.401 C 131.851 251.282,131.200 252.128,131.200 252.281 C 131.200 252.435,131.335 252.389,131.501 252.180 C 131.667 251.971,132.422 251.125,133.180 250.300 C 133.937 249.475,134.453 248.800,134.325 248.800 C 134.197 248.800,133.442 249.521,132.647 250.401 M103.600 250.424 C 103.600 250.657,103.769 250.743,103.975 250.615 C 104.182 250.488,104.555 250.702,104.806 251.092 C 105.235 251.760,105.247 251.758,105.030 251.067 C 104.904 250.664,104.800 250.259,104.800 250.167 C 104.800 250.075,104.530 250.000,104.200 250.000 C 103.870 250.000,103.600 250.191,103.600 250.424 M292.509 251.600 C 292.509 252.590,292.587 252.995,292.682 252.500 C 292.778 252.005,292.778 251.195,292.682 250.700 C 292.587 250.205,292.509 250.610,292.509 251.600 M170.575 254.900 L 169.400 256.200 170.700 255.025 C 171.912 253.930,172.184 253.600,171.875 253.600 C 171.806 253.600,171.221 254.185,170.575 254.900 M257.893 253.926 C 258.260 254.159,258.416 257.053,258.500 265.220 L 258.613 276.200 258.707 264.900 C 258.794 254.367,258.752 253.600,258.100 253.606 C 257.608 253.610,257.547 253.705,257.893 253.926 M65.315 255.896 C 66.588 255.976,68.568 255.975,69.715 255.894 C 70.862 255.814,69.820 255.749,67.400 255.750 C 64.980 255.751,64.042 255.816,65.315 255.896 M207.119 256.698 C 208.944 256.772,211.824 256.772,213.519 256.697 C 215.214 256.622,213.720 256.561,210.200 256.562 C 206.680 256.562,205.294 256.624,207.119 256.698 M218.131 259.400 C 218.133 260.940,218.205 261.521,218.292 260.691 C 218.379 259.861,218.377 258.601,218.289 257.891 C 218.200 257.181,218.129 257.860,218.131 259.400 M129.714 259.000 C 129.717 260.100,129.795 260.503,129.887 259.895 C 129.979 259.286,129.977 258.386,129.882 257.895 C 129.787 257.403,129.711 257.900,129.714 259.000 M56.501 260.600 C 56.505 261.480,56.587 261.793,56.683 261.295 C 56.779 260.798,56.775 260.078,56.675 259.695 C 56.575 259.313,56.496 259.720,56.501 260.600 M99.443 261.433 C 98.789 263.137,98.965 263.200,104.400 263.200 C 107.260 263.200,109.600 263.065,109.601 262.900 C 109.601 262.735,107.329 262.656,104.551 262.724 L 99.501 262.847 99.758 261.824 C 100.041 260.697,99.827 260.432,99.443 261.433 M63.460 261.500 C 63.358 261.665,64.742 261.752,66.537 261.692 C 72.144 261.507,72.779 261.337,68.124 261.267 C 65.662 261.230,63.563 261.335,63.460 261.500 M283.116 261.497 C 284.499 261.575,286.659 261.574,287.916 261.495 C 289.172 261.416,288.040 261.352,285.400 261.353 C 282.760 261.353,281.732 261.418,283.116 261.497 M280.467 266.076 C 280.430 268.428,280.535 270.437,280.700 270.540 C 280.865 270.642,280.951 269.348,280.892 267.663 C 280.701 262.289,280.536 261.673,280.467 266.076 M56.564 269.000 C 56.563 272.740,56.623 274.324,56.697 272.520 C 56.771 270.715,56.772 267.655,56.698 265.720 C 56.625 263.784,56.564 265.260,56.564 269.000 M203.267 266.276 C 203.230 268.518,203.335 270.437,203.500 270.540 C 203.665 270.642,203.751 269.438,203.691 267.863 C 203.494 262.718,203.336 262.124,203.267 266.276 M317.599 262.900 C 317.600 263.065,319.985 263.168,322.900 263.128 C 328.230 263.055,327.590 262.906,321.099 262.707 C 319.174 262.648,317.599 262.735,317.599 262.900 M300.909 266.800 C 300.909 267.790,300.987 268.195,301.082 267.700 C 301.178 267.205,301.178 266.395,301.082 265.900 C 300.987 265.405,300.909 265.810,300.909 266.800 M133.001 267.934 C 133.660 268.668,134.560 269.455,135.000 269.683 C 135.440 269.911,135.620 269.940,135.400 269.748 C 135.180 269.555,134.280 268.768,133.401 267.999 L 131.802 266.600 133.001 267.934 M100.480 268.698 C 102.394 268.771,105.634 268.771,107.680 268.698 C 109.726 268.626,108.160 268.566,104.200 268.565 C 100.240 268.565,98.566 268.624,100.480 268.698 M319.100 268.698 C 321.135 268.771,324.465 268.771,326.500 268.698 C 328.535 268.625,326.870 268.566,322.800 268.566 C 318.730 268.566,317.065 268.625,319.100 268.698 M139.900 271.082 C 140.395 271.178,141.205 271.178,141.700 271.082 C 142.195 270.987,141.790 270.909,140.800 270.909 C 139.810 270.909,139.405 270.987,139.900 271.082 M298.175 273.300 L 297.000 274.600 298.300 273.425 C 299.512 272.330,299.784 272.000,299.475 272.000 C 299.406 272.000,298.821 272.585,298.175 273.300 M87.000 275.600 C 86.155 276.967,93.007 277.454,94.032 276.100 C 94.482 275.504,94.478 275.475,94.001 275.900 C 93.125 276.681,87.042 276.589,87.345 275.800 C 87.604 275.123,87.377 274.991,87.000 275.600 M121.200 275.983 C 121.200 276.194,119.805 276.428,118.100 276.503 L 115.000 276.639 118.300 276.720 C 121.002 276.785,121.600 276.691,121.600 276.200 C 121.600 275.870,121.510 275.600,121.400 275.600 C 121.290 275.600,121.200 275.772,121.200 275.983 M190.800 276.026 C 190.800 276.307,189.392 276.409,186.637 276.326 C 184.347 276.257,182.558 276.335,182.661 276.500 C 183.054 277.133,191.200 276.847,191.200 276.200 C 191.200 275.870,191.110 275.600,191.000 275.600 C 190.890 275.600,190.800 275.792,190.800 276.026 M340.000 275.984 C 340.000 276.195,338.515 276.428,336.700 276.502 L 333.400 276.637 336.900 276.719 C 339.781 276.786,340.400 276.694,340.400 276.200 C 340.400 275.870,340.310 275.600,340.200 275.600 C 340.090 275.600,340.000 275.773,340.000 275.984 M56.748 276.509 C 56.919 276.679,60.375 276.769,64.429 276.708 L 71.800 276.598 64.119 276.399 C 59.895 276.290,56.578 276.339,56.748 276.509 M197.146 276.506 C 197.315 276.675,202.571 276.765,208.826 276.706 L 220.200 276.599 208.520 276.400 C 202.095 276.290,196.977 276.338,197.146 276.506 M261.600 276.400 L 258.600 276.656 261.476 276.728 C 263.058 276.768,264.464 276.620,264.600 276.400 C 264.736 276.180,264.792 276.032,264.724 276.072 C 264.656 276.112,263.250 276.259,261.600 276.400 M305.599 276.500 C 305.600 276.665,307.085 276.773,308.900 276.740 C 312.307 276.678,311.913 276.510,307.899 276.313 C 306.634 276.251,305.599 276.335,305.599 276.500 M277.680 276.698 C 279.594 276.771,282.834 276.771,284.880 276.698 C 286.926 276.626,285.360 276.566,281.400 276.565 C 277.440 276.565,275.766 276.624,277.680 276.698 M139.700 277.087 C 140.305 277.178,141.295 277.178,141.900 277.087 C 142.505 276.995,142.010 276.920,140.800 276.920 C 139.590 276.920,139.095 276.995,139.700 277.087 M193.700 292.676 C 194.085 292.776,194.715 292.776,195.100 292.676 C 195.485 292.575,195.170 292.493,194.400 292.493 C 193.630 292.493,193.315 292.575,193.700 292.676 M243.633 292.544 C 243.725 292.624,244.610 292.796,245.600 292.927 C 246.802 293.086,247.134 293.047,246.600 292.810 C 245.836 292.472,243.286 292.243,243.633 292.544 M124.505 293.087 C 125.114 293.179,126.014 293.177,126.505 293.082 C 126.997 292.987,126.500 292.911,125.400 292.914 C 124.300 292.917,123.897 292.995,124.505 293.087 M164.105 293.087 C 164.714 293.179,165.614 293.177,166.105 293.082 C 166.597 292.987,166.100 292.911,165.000 292.914 C 163.900 292.917,163.497 292.995,164.105 293.087 M262.580 293.309 C 262.472 293.588,262.437 297.953,262.500 303.009 L 262.616 312.200 262.708 302.728 C 262.800 293.256,262.800 293.256,263.700 293.082 L 264.600 292.909 263.687 292.854 C 263.186 292.825,262.687 293.029,262.580 293.309 M275.180 294.690 C 275.071 295.619,275.133 296.227,275.320 296.040 C 275.506 295.854,275.596 295.094,275.519 294.351 C 275.383 293.033,275.375 293.042,275.180 294.690 M124.159 296.562 C 124.041 296.871,124.018 297.726,124.108 298.462 C 124.258 299.683,124.278 299.652,124.336 298.119 L 124.400 296.438 126.900 296.296 L 129.400 296.154 126.887 296.077 C 125.044 296.021,124.317 296.150,124.159 296.562 M266.166 296.545 C 266.051 296.844,266.022 298.149,266.103 299.445 L 266.249 301.800 266.324 299.114 L 266.400 296.428 270.500 296.298 L 274.600 296.169 270.487 296.084 C 267.327 296.020,266.327 296.126,266.166 296.545 M134.914 299.400 C 134.917 300.500,134.995 300.903,135.087 300.295 C 135.179 299.686,135.177 298.786,135.082 298.295 C 134.987 297.803,134.911 298.300,134.914 299.400 M218.000 298.424 C 218.000 298.657,218.182 298.735,218.403 298.598 C 218.625 298.461,218.974 298.765,219.178 299.274 C 219.382 299.783,219.561 299.990,219.575 299.733 C 219.622 298.861,219.117 298.000,218.557 298.000 C 218.251 298.000,218.000 298.191,218.000 298.424 M124.000 301.176 C 124.000 301.823,124.142 302.441,124.316 302.548 C 124.490 302.656,124.561 302.127,124.473 301.372 C 124.276 299.691,124.000 299.577,124.000 301.176 M238.249 300.615 C 238.112 300.973,238.026 302.106,238.059 303.133 C 238.116 304.960,238.123 304.949,238.390 302.600 C 238.680 300.037,238.648 299.577,238.249 300.615 M246.700 301.895 C 247.855 301.976,249.745 301.976,250.900 301.895 C 252.055 301.814,251.110 301.748,248.800 301.748 C 246.490 301.748,245.545 301.814,246.700 301.895 M273.924 303.000 L 274.088 304.400 270.267 304.400 C 268.166 304.400,266.363 304.535,266.260 304.700 C 266.158 304.865,267.902 304.910,270.137 304.800 L 274.200 304.600 274.324 303.100 C 274.392 302.275,274.294 301.600,274.104 301.600 C 273.915 301.600,273.834 302.230,273.924 303.000 M252.931 305.400 C 252.933 306.940,253.005 307.521,253.092 306.691 C 253.179 305.861,253.177 304.601,253.089 303.891 C 253.000 303.181,252.929 303.860,252.931 305.400 M244.900 304.676 C 245.285 304.776,245.915 304.776,246.300 304.676 C 246.685 304.575,246.370 304.493,245.600 304.493 C 244.830 304.493,244.515 304.575,244.900 304.676 M202.101 307.000 C 202.105 307.880,202.187 308.193,202.283 307.695 C 202.379 307.198,202.375 306.478,202.275 306.095 C 202.175 305.713,202.096 306.120,202.101 307.000 M266.109 307.200 C 266.109 308.190,266.187 308.595,266.282 308.100 C 266.378 307.605,266.378 306.795,266.282 306.300 C 266.187 305.805,266.109 306.210,266.109 307.200 M189.200 307.484 C 189.530 307.605,190.160 307.996,190.600 308.352 C 191.393 308.994,191.394 308.992,190.638 308.100 C 190.219 307.605,189.589 307.214,189.238 307.232 C 188.696 307.258,188.691 307.297,189.200 307.484 M124.120 309.600 C 124.120 310.810,124.195 311.305,124.287 310.700 C 124.378 310.095,124.378 309.105,124.287 308.500 C 124.195 307.895,124.120 308.390,124.120 309.600 M147.715 308.696 C 148.988 308.776,150.968 308.775,152.115 308.694 C 153.262 308.614,152.220 308.549,149.800 308.550 C 147.380 308.551,146.442 308.616,147.715 308.696 M215.600 308.659 C 218.912 308.953,223.112 308.976,222.940 308.700 C 222.837 308.535,220.828 308.430,218.476 308.467 C 216.124 308.504,214.830 308.590,215.600 308.659 M266.352 309.714 C 266.526 309.886,268.722 309.975,271.234 309.912 L 275.800 309.796 270.918 309.598 C 268.234 309.489,266.179 309.541,266.352 309.714 M156.900 312.676 C 157.285 312.776,157.915 312.776,158.300 312.676 C 158.685 312.575,158.370 312.493,157.600 312.493 C 156.830 312.493,156.515 312.575,156.900 312.676 M225.905 312.683 C 226.402 312.779,227.122 312.775,227.505 312.675 C 227.887 312.575,227.480 312.496,226.600 312.501 C 225.720 312.505,225.407 312.587,225.905 312.683 M264.105 312.687 C 264.714 312.779,265.614 312.777,266.105 312.682 C 266.597 312.587,266.100 312.511,265.000 312.514 C 263.900 312.517,263.497 312.595,264.105 312.687 M270.900 312.687 C 271.505 312.778,272.495 312.778,273.100 312.687 C 273.705 312.595,273.210 312.520,272.000 312.520 C 270.790 312.520,270.295 312.595,270.900 312.687 M193.700 313.087 C 194.305 313.178,195.295 313.178,195.900 313.087 C 196.505 312.995,196.010 312.920,194.800 312.920 C 193.590 312.920,193.095 312.995,193.700 313.087 M243.300 313.087 C 243.905 313.178,244.895 313.178,245.500 313.087 C 246.105 312.995,245.610 312.920,244.400 312.920 C 243.190 312.920,242.695 312.995,243.300 313.087 " stroke="none" fill="#7c7c7b" fill-rule="evenodd"></path><path id="path4" d="M214.200 83.200 C 215.283 84.300,216.260 85.200,216.370 85.200 C 216.480 85.200,215.683 84.300,214.600 83.200 C 213.517 82.100,212.540 81.200,212.430 81.200 C 212.320 81.200,213.117 82.100,214.200 83.200 M187.391 85.300 L 184.200 88.600 187.500 85.409 C 190.565 82.446,190.982 82.000,190.691 82.000 C 190.630 82.000,189.145 83.485,187.391 85.300 M200.656 88.884 C 200.521 89.388,200.430 90.340,200.453 91.000 C 200.481 91.828,200.597 91.584,200.826 90.213 C 201.176 88.123,201.074 87.326,200.656 88.884 M202.520 96.400 C 202.520 97.610,202.595 98.105,202.687 97.500 C 202.778 96.895,202.778 95.905,202.687 95.300 C 202.595 94.695,202.520 95.190,202.520 96.400 M199.293 99.600 C 199.293 100.370,199.375 100.685,199.476 100.300 C 199.576 99.915,199.576 99.285,199.476 98.900 C 199.375 98.515,199.293 98.830,199.293 99.600 M202.928 104.000 C 202.928 105.430,203.001 106.015,203.089 105.300 C 203.178 104.585,203.178 103.415,203.089 102.700 C 203.001 101.985,202.928 102.570,202.928 104.000 M184.400 106.000 C 184.400 106.220,184.738 106.400,185.151 106.400 C 185.564 106.400,186.126 106.670,186.400 107.000 C 186.674 107.330,187.091 107.600,187.327 107.600 C 187.562 107.600,187.145 107.150,186.400 106.600 C 184.946 105.527,184.400 105.363,184.400 106.000 M198.493 108.000 C 198.493 108.770,198.575 109.085,198.676 108.700 C 198.776 108.315,198.776 107.685,198.676 107.300 C 198.575 106.915,198.493 107.230,198.493 108.000 M220.832 109.974 C 220.814 110.290,220.400 111.010,219.911 111.574 L 219.023 112.600 220.159 111.543 C 220.784 110.962,221.198 110.242,221.079 109.943 C 220.905 109.505,220.857 109.511,220.832 109.974 M198.124 112.200 C 198.126 113.520,198.201 114.012,198.290 113.293 C 198.379 112.574,198.377 111.494,198.286 110.893 C 198.195 110.292,198.122 110.880,198.124 112.200 M167.050 121.250 C 166.717 122.917,167.040 123.240,167.400 121.600 C 167.552 120.909,167.593 120.259,167.491 120.158 C 167.389 120.056,167.191 120.547,167.050 121.250 M237.085 124.400 C 237.207 125.830,237.372 127.075,237.453 127.167 C 237.720 127.470,237.511 124.222,237.185 123.000 C 236.982 122.244,236.946 122.762,237.085 124.400 M175.868 129.434 C 176.014 129.814,176.213 129.902,176.366 129.655 C 176.528 129.392,176.836 129.378,177.211 129.615 C 177.535 129.820,177.980 129.984,178.200 129.980 C 178.753 129.969,176.717 128.832,176.113 128.814 C 175.830 128.806,175.727 129.067,175.868 129.434 M237.724 131.000 C 237.726 132.320,237.801 132.812,237.890 132.093 C 237.979 131.374,237.977 130.294,237.886 129.693 C 237.795 129.092,237.722 129.680,237.724 131.000 M237.301 136.200 C 237.305 137.080,237.387 137.393,237.483 136.895 C 237.579 136.398,237.575 135.678,237.475 135.295 C 237.375 134.913,237.296 135.320,237.301 136.200 M185.000 138.000 C 186.306 139.320,187.465 140.400,187.575 140.400 C 187.685 140.400,186.706 139.320,185.400 138.000 C 184.094 136.680,182.935 135.600,182.825 135.600 C 182.715 135.600,183.694 136.680,185.000 138.000 M166.868 138.000 C 166.888 139.039,167.518 140.746,167.532 139.800 C 167.538 139.360,167.389 138.640,167.200 138.200 C 166.989 137.710,166.861 137.632,166.868 138.000 M203.359 148.400 C 203.359 151.590,203.421 152.895,203.497 151.300 C 203.573 149.705,203.573 147.095,203.497 145.500 C 203.421 143.905,203.359 145.210,203.359 148.400 M262.800 152.153 C 262.800 152.238,263.250 152.393,263.800 152.498 C 264.350 152.603,264.800 152.534,264.800 152.345 C 264.800 152.155,264.350 152.000,263.800 152.000 C 263.250 152.000,262.800 152.069,262.800 152.153 M259.905 152.683 C 260.402 152.779,261.122 152.775,261.505 152.675 C 261.887 152.575,261.480 152.496,260.600 152.501 C 259.720 152.505,259.407 152.587,259.905 152.683 M141.507 156.690 C 142.226 156.779,143.306 156.777,143.907 156.686 C 144.508 156.595,143.920 156.522,142.600 156.524 C 141.280 156.526,140.788 156.601,141.507 156.690 M227.375 157.700 L 226.200 159.000 227.500 157.825 C 228.215 157.179,228.800 156.594,228.800 156.525 C 228.800 156.216,228.470 156.488,227.375 157.700 M264.501 157.800 C 264.505 158.680,264.587 158.993,264.683 158.495 C 264.779 157.998,264.775 157.278,264.675 156.895 C 264.575 156.513,264.496 156.920,264.501 157.800 M263.800 162.800 C 263.648 163.491,263.607 164.141,263.709 164.242 C 263.811 164.344,264.009 163.853,264.150 163.150 C 264.483 161.483,264.160 161.160,263.800 162.800 M174.800 164.584 C 174.800 164.694,175.520 165.151,176.400 165.600 C 177.280 166.049,178.000 166.326,178.000 166.216 C 178.000 166.106,177.280 165.649,176.400 165.200 C 175.520 164.751,174.800 164.474,174.800 164.584 M213.400 166.214 C 212.400 166.696,212.366 166.751,213.200 166.548 C 214.333 166.271,215.607 165.621,215.000 165.630 C 214.780 165.633,214.060 165.896,213.400 166.214 M262.629 168.229 C 262.481 168.815,262.438 169.372,262.532 169.466 C 262.627 169.560,262.824 169.158,262.971 168.571 C 263.119 167.985,263.162 167.428,263.068 167.334 C 262.973 167.240,262.776 167.642,262.629 168.229 M203.905 168.283 C 204.402 168.379,205.122 168.375,205.505 168.275 C 205.887 168.175,205.480 168.096,204.600 168.101 C 203.720 168.105,203.407 168.187,203.905 168.283 M194.600 178.800 C 196.350 180.560,197.871 182.000,197.981 182.000 C 198.091 182.000,196.750 180.560,195.000 178.800 C 193.250 177.040,191.729 175.600,191.619 175.600 C 191.509 175.600,192.850 177.040,194.600 178.800 M220.122 181.029 L 219.000 182.058 220.300 181.154 C 221.015 180.657,221.600 180.193,221.600 180.125 C 221.600 179.809,221.158 180.080,220.122 181.029 M146.500 181.476 C 146.885 181.576,147.515 181.576,147.900 181.476 C 148.285 181.375,147.970 181.293,147.200 181.293 C 146.430 181.293,146.115 181.375,146.500 181.476 M150.900 181.876 C 151.285 181.976,151.915 181.976,152.300 181.876 C 152.685 181.775,152.370 181.693,151.600 181.693 C 150.830 181.693,150.515 181.775,150.900 181.876 M215.178 185.100 L 213.800 186.600 215.300 185.222 C 216.696 183.938,216.984 183.600,216.678 183.600 C 216.612 183.600,215.937 184.275,215.178 185.100 M153.800 185.981 C 154.568 186.329,156.710 186.556,156.367 186.253 C 156.275 186.172,155.480 185.996,154.600 185.862 C 153.485 185.693,153.242 185.729,153.800 185.981 M220.585 187.700 L 218.600 189.800 220.700 187.815 C 221.855 186.723,222.800 185.778,222.800 185.715 C 222.800 185.417,222.429 185.749,220.585 187.700 M210.181 190.100 L 208.600 191.800 210.300 190.219 C 211.881 188.748,212.184 188.400,211.881 188.400 C 211.816 188.400,211.051 189.165,210.181 190.100 M214.344 194.700 C 213.193 196.089,212.706 196.800,212.904 196.800 C 213.014 196.800,213.586 196.170,214.173 195.400 C 215.263 193.971,215.395 193.432,214.344 194.700 M158.800 199.800 C 160.217 201.230,161.467 202.400,161.577 202.400 C 161.687 202.400,160.617 201.230,159.200 199.800 C 157.783 198.370,156.533 197.200,156.423 197.200 C 156.313 197.200,157.383 198.370,158.800 199.800 M244.778 200.300 L 243.400 201.800 244.900 200.422 C 246.296 199.138,246.584 198.800,246.278 198.800 C 246.212 198.800,245.537 199.475,244.778 200.300 M235.300 207.646 C 233.937 208.519,233.495 209.106,234.700 208.443 C 235.618 207.939,237.056 206.827,236.800 206.819 C 236.690 206.816,236.015 207.188,235.300 207.646 M211.929 215.657 C 212.621 216.444,212.723 216.768,212.329 216.925 C 211.979 217.065,211.961 217.148,212.276 217.168 C 213.235 217.232,213.148 216.492,212.088 215.558 L 211.000 214.600 211.929 215.657 " stroke="none" fill="#7ca574" fill-rule="evenodd"></path></g></svg>